<svg xmlns="http://www.w3.org/2000/svg" xmlns:xlink="http://www.w3.org/1999/xlink" width="16" height="16" viewBox="0 0 16 16">
  <defs>
    <clipPath id="clip-path">
      <rect width="16" height="16" fill="none"/>
    </clipPath>
  </defs>
  <g id="Bag" clip-path="url(#clip-path)">
    <path id="Path_152" data-name="Path 152" d="M10,7a.945.945,0,0,0,1,1,.945.945,0,0,0,1-1,.945.945,0,0,0-1-1A.945.945,0,0,0,10,7ZM4,7A.945.945,0,0,0,5,8,.945.945,0,0,0,6,7,.945.945,0,0,0,5,6,.945.945,0,0,0,4,7ZM15,4.9l1,10a1.136,1.136,0,0,1-.3.8.779.779,0,0,1-.7.3H1a.779.779,0,0,1-.7-.3,1.135,1.135,0,0,1-.3-.8l1-10A1.063,1.063,0,0,1,2,4H4a4,4,0,0,1,8,0h2A1.063,1.063,0,0,1,15,4.9ZM10,4H6a2,2,0,0,1,4,0Z" fill="#06f" fill-rule="evenodd"/>
  </g>
</svg>
