<svg xmlns="http://www.w3.org/2000/svg" version="1.1" xmlns:xlink="http://www.w3.org/1999/xlink" xmlns:svgjs="http://svgjs.com/svgjs" width="800" height="800" preserveAspectRatio="none" viewBox="0 0 800 800"><g mask="url(&quot;#SvgjsMask1000&quot;)" fill="none"><path d="M604.04 761.21L645.57 761.21L645.57 802.74L604.04 802.74z" stroke="rgba(0, 102, 255, 1)"></path><path d="M578.85 2.5L646.58 2.5L646.58 70.23L578.85 70.23z" fill="rgba(255, 255, 255, 1)"></path><path d="M185.91 60.49a62.65 62.65 0 1 0-48.71 115.45z" fill="rgba(0, 102, 255, 1)"></path><path d="M163.88 546.63L170.15 546.63L170.15 552.9L163.88 552.9z" fill="rgba(0, 102, 255, 1)"></path><path d="M552.57 559.19a11.51 11.51 0 1 0 19.5 12.24z" fill="rgba(0, 102, 255, 1)"></path><path d="M640.97 480.83a17.83 17.83 0 1 0-33.8 11.36z" stroke="rgba(0, 102, 255, 1)"></path><path d="M581.25 40.81a37.68 37.68 0 1 0 14.98 73.85z" fill="rgba(255, 255, 255, 1)"></path><path d="M231.88 534.69L309.73 534.69L309.73 612.54L231.88 612.54z" stroke="rgba(0, 32, 80, 1)"></path><path d="M32.06 642.68 a48.15 48.15 0 1 0 96.3 0 a48.15 48.15 0 1 0 -96.3 0z" fill="rgba(0, 32, 80, 1)"></path><path d="M319.13 163.95 a53.6 53.6 0 1 0 107.2 0 a53.6 53.6 0 1 0 -107.2 0z" stroke="rgba(0, 32, 80, 1)"></path><path d="M306.86 201.37L380.92 201.37L380.92 275.43L306.86 275.43z" fill="rgba(0, 102, 255, 1)"></path><path d="M412.6 49.22L430.52 49.22L430.52 103.06L412.6 103.06z" fill="rgba(255, 255, 255, 1)"></path><path d="M570.11 688.05L627.94 688.05L627.94 701.38L570.11 701.38z" fill="rgba(0, 102, 255, 1)"></path></g><defs><mask id="SvgjsMask1000"><rect width="800" height="800" fill="#ffffff"></rect></mask></defs></svg>