<svg xmlns="http://www.w3.org/2000/svg" xmlns:xlink="http://www.w3.org/1999/xlink" width="2020.381" height="1288.57" viewBox="0 0 2020.381 1288.57">
  <defs>
    <clipPath id="clip-Liftdrop-logo-alt">
      <rect width="2020.38" height="1288.57"/>
    </clipPath>
  </defs>
  <g id="Liftdrop-logo-alt" clip-path="url(#clip-Liftdrop-logo-alt)">
    <path id="Union_49" data-name="Union 49" d="M12417.149-15058.271a17.865,17.865,0,0,1-7.007-1.416,17.9,17.9,0,0,1-5.724-3.855,17.932,17.932,0,0,1-3.856-5.724,17.867,17.867,0,0,1-1.415-7.007v-992a17.863,17.863,0,0,1,1.415-7,17.928,17.928,0,0,1,3.856-5.723,17.905,17.905,0,0,1,5.724-3.856,17.865,17.865,0,0,1,7.007-1.416h227a17.865,17.865,0,0,1,7.007,1.416,17.905,17.905,0,0,1,5.724,3.856,17.928,17.928,0,0,1,3.856,5.723,17.863,17.863,0,0,1,1.415,7v27.918a326.221,326.221,0,0,1,30.075-16.267,314.241,314.241,0,0,1,64.308-22.4,309.191,309.191,0,0,1,69.041-7.808,309.191,309.191,0,0,1,69.041,7.808,314.1,314.1,0,0,1,64.3,22.4,332.673,332.673,0,0,1,58.194,35.429,356.843,356.843,0,0,1,50.7,46.925,380.873,380.873,0,0,1,41.833,56.873,401.2,401.2,0,0,1,31.586,65.275,417.2,417.2,0,0,1,19.958,72.135,432.462,432.462,0,0,1,6.962,77.443,432.505,432.505,0,0,1-6.962,77.447,417.345,417.345,0,0,1-19.958,72.135,401.15,401.15,0,0,1-31.586,65.274,380.974,380.974,0,0,1-41.833,56.873,357.049,357.049,0,0,1-50.7,46.925,332.772,332.772,0,0,1-58.194,35.43,314.143,314.143,0,0,1-64.3,22.392,308.962,308.962,0,0,1-69.041,7.807,308.962,308.962,0,0,1-69.041-7.807,314.286,314.286,0,0,1-64.308-22.392,326.221,326.221,0,0,1-30.075-16.267v288.452a17.867,17.867,0,0,1-1.415,7.007,17.932,17.932,0,0,1-3.856,5.724,17.9,17.9,0,0,1-5.724,3.855,17.865,17.865,0,0,1-7.007,1.416Zm201.355-659.4a.413.413,0,0,1,0,.069c0,.049-.009.11-.017.16s-.008.106-.013.16c0,.028,0,.049-.008.077,0,.07-.013.14-.017.205a.037.037,0,0,1,0,.021q-.511,5.946-.6,11.959v.222c0,.021,0,.037,0,.058v.263c0,.053,0,.11,0,.164v.353c0,.05,0,.1,0,.144v.382c0,.041,0,.086,0,.127v1.534c0,.046,0,.087,0,.132v.377c0,.05,0,.1,0,.147v.35c0,.057,0,.11,0,.168v.263c0,.021,0,.032,0,.057v.218c.062,4.086.271,8.16.628,12.2v.037c.009.065.013.131.021.2a.673.673,0,0,0,.009.1l.012.136c7.672,84.487,78.9,150.9,165.356,150.9,91.556,0,166.041-74.489,166.041-166.045s-74.485-166.041-166.041-166.041C12697.413-15868.584,12626.177-15802.165,12618.5-15717.673Zm-573.622,399.384a18,18,0,0,1-18-18v-390.4a18,18,0,0,1,18-18h226.147a18,18,0,0,1,18,18v390.4a18,18,0,0,1-18,18Zm-623.583-7.808a314.44,314.44,0,0,1-64.3-22.392,332.848,332.848,0,0,1-58.189-35.429,357.31,357.31,0,0,1-50.7-46.925,381.3,381.3,0,0,1-41.834-56.873,401.294,401.294,0,0,1-31.581-65.275,417.048,417.048,0,0,1-19.963-72.135,432.619,432.619,0,0,1-6.962-77.447,432.635,432.635,0,0,1,6.962-77.447,417.019,417.019,0,0,1,19.963-72.13,401.139,401.139,0,0,1,31.581-65.279,381.5,381.5,0,0,1,41.834-56.873,357,357,0,0,1,50.7-46.921,332.7,332.7,0,0,1,58.189-35.434,314.557,314.557,0,0,1,64.3-22.392,309.323,309.323,0,0,1,69.046-7.807,309.252,309.252,0,0,1,69.037,7.807,314.469,314.469,0,0,1,64.307,22.392,328.184,328.184,0,0,1,30.08,16.267v-288.452a17.864,17.864,0,0,1,1.411-7.007,17.966,17.966,0,0,1,3.86-5.723,18,18,0,0,1,5.719-3.856,17.887,17.887,0,0,1,7.008-1.416h227a17.879,17.879,0,0,1,7.007,1.416,18,18,0,0,1,5.719,3.856,17.985,17.985,0,0,1,3.861,5.723,17.955,17.955,0,0,1,1.415,7.007v992a17.932,17.932,0,0,1-1.415,7,17.942,17.942,0,0,1-3.861,5.723,17.885,17.885,0,0,1-5.719,3.856,17.879,17.879,0,0,1-7.007,1.416h-227a17.887,17.887,0,0,1-7.008-1.416,17.9,17.9,0,0,1-5.719-3.856,17.923,17.923,0,0,1-3.86-5.723,17.841,17.841,0,0,1-1.411-7v-27.913a327.229,327.229,0,0,1-30.08,16.266,314.352,314.352,0,0,1-64.307,22.392,308.967,308.967,0,0,1-69.037,7.808A309.038,309.038,0,0,1,11421.3-15326.1Zm-55.293-376.476c0,91.557,74.485,166.041,166.041,166.041,86.456,0,157.688-66.419,165.36-150.906,0-.024,0-.05.008-.074,0-.049.008-.11.013-.16s.008-.1.012-.155a.617.617,0,0,0,.009-.078c.008-.07.012-.14.021-.209v-.021q.517-5.946.6-11.959v-.021c0-.066,0-.136,0-.2v-.062c0-.058,0-.115,0-.177v-.25c0-.028,0-.058,0-.086v-.263c0-.049,0-.1,0-.147v-1.018c0-.086,0-.177,0-.259s0-.172,0-.254v-1.021c0-.05,0-.1,0-.147v-.263c0-.029,0-.058,0-.087v-.25c0-.058,0-.119,0-.176v-.058c0-.065,0-.136,0-.2v-.021q-.092-6.129-.623-12.2c0-.012,0-.028,0-.041,0-.065-.012-.131-.016-.2a.673.673,0,0,1-.009-.1c0-.041-.008-.09-.012-.131-7.672-84.492-78.9-150.9-165.36-150.9C11440.492-15868.617,11366.007-15794.128,11366.007-15702.572Zm678.876-122.041a18,18,0,0,1-18-18v-226.151a18,18,0,0,1,18-18h226.147a18,18,0,0,1,18,18v226.151a18,18,0,0,1-18,18Z" transform="translate(-11147.766 16349.002)" fill="#fff"/>
  </g>
</svg>
