<svg xmlns="http://www.w3.org/2000/svg" xmlns:xlink="http://www.w3.org/1999/xlink" width="4864" height="1290.84" viewBox="0 0 4864 1290.84">
  <defs>
    <clipPath id="clip-Liftdrop-logo">
      <rect width="4864" height="1290.84"/>
    </clipPath>
  </defs>
  <g id="Liftdrop-logo" clip-path="url(#clip-Liftdrop-logo)">
    <path id="Union_49" data-name="Union 49" d="M13362.435-15058.163v-1028.428h262.145v46.545a327.168,327.168,0,0,1,30.494-16.519,314.451,314.451,0,0,1,64.308-22.395,309.2,309.2,0,0,1,69.042-7.809,309.239,309.239,0,0,1,69.042,7.809,314.511,314.511,0,0,1,64.3,22.395,332.58,332.58,0,0,1,58.189,35.43,357.056,357.056,0,0,1,50.7,46.923,381.271,381.271,0,0,1,41.83,56.872,401.252,401.252,0,0,1,31.59,65.275,417.329,417.329,0,0,1,19.957,72.136,432.492,432.492,0,0,1,6.963,77.445,432.508,432.508,0,0,1-6.963,77.445,417.654,417.654,0,0,1-19.957,72.136,401.223,401.223,0,0,1-31.59,65.276,380.93,380.93,0,0,1-41.83,56.872,357.056,357.056,0,0,1-50.7,46.923,332.58,332.58,0,0,1-58.189,35.43,314.511,314.511,0,0,1-64.3,22.395,309.235,309.235,0,0,1-69.042,7.8,309.2,309.2,0,0,1-69.042-7.8,314.451,314.451,0,0,1-64.308-22.395,328.086,328.086,0,0,1-30.494-16.519v306.757Zm219.929-668.027a.33.33,0,0,0-.009.033c-.008.062-.017.118-.024.18a167.353,167.353,0,0,0-1.646,21.517v.029c0,.069,0,.14,0,.209v.312c0,.058,0,.107,0,.164v.632c0,.041,0,.078,0,.119v1.026c0,.041,0,.082,0,.118v.637c0,.053,0,.1,0,.16v.315c0,.065,0,.136,0,.205v.029a167.494,167.494,0,0,0,1.646,21.521c.008.057.017.11.024.172a.124.124,0,0,0,.009.041c11.537,80.366,80.842,142.331,164.352,142.331,91.556,0,166.043-74.487,166.043-166.043s-74.487-166.042-166.043-166.042C13663.205-15868.525,13593.9-15806.562,13582.363-15726.19Zm-3433.6,408.915v-767.37c.1-144.7,117.429-261.973,262.148-261.973h154.9v262.145h-76.173a79.3,79.3,0,0,0-78.729,78.521v31.105h154.9v262.148h-154.9v395.424Zm2662.577-8.821a382.035,382.035,0,0,1-72.136-22.391,384.38,384.38,0,0,1-65.276-35.43,387.091,387.091,0,0,1-56.872-46.927,387.029,387.029,0,0,1-46.927-56.873,384.577,384.577,0,0,1-35.43-65.275,382.655,382.655,0,0,1-22.391-72.132,387.366,387.366,0,0,1-7.808-77.449,387.327,387.327,0,0,1,7.808-77.445,382.655,382.655,0,0,1,22.391-72.132,384.614,384.614,0,0,1,35.43-65.275,387.021,387.021,0,0,1,46.927-56.872,386.967,386.967,0,0,1,56.872-46.927,384.316,384.316,0,0,1,65.276-35.431,382.032,382.032,0,0,1,72.136-22.39,386.934,386.934,0,0,1,77.445-7.809,386.978,386.978,0,0,1,77.445,7.809,382.1,382.1,0,0,1,72.131,22.39,384.352,384.352,0,0,1,65.28,35.431,387.171,387.171,0,0,1,56.872,46.927,386.748,386.748,0,0,1,46.923,56.872,384.066,384.066,0,0,1,35.43,65.275,382.085,382.085,0,0,1,22.391,72.132,386.97,386.97,0,0,1,7.809,77.445,387.009,387.009,0,0,1-7.809,77.449,382.085,382.085,0,0,1-22.391,72.132,384.029,384.029,0,0,1-35.43,65.275,386.756,386.756,0,0,1-46.923,56.873,387.3,387.3,0,0,1-56.872,46.927,384.415,384.415,0,0,1-65.28,35.43,382.1,382.1,0,0,1-72.131,22.391,387.048,387.048,0,0,1-77.445,7.808A386.976,386.976,0,0,1,12811.337-15326.1Zm-88.6-376.477c0,91.556,74.487,166.047,166.043,166.047s166.042-74.491,166.042-166.047-74.486-166.043-166.042-166.043S12722.739-15794.129,12722.739-15702.573ZM11411.3-15326.1a314.225,314.225,0,0,1-64.308-22.391,332.877,332.877,0,0,1-58.189-35.43,357.311,357.311,0,0,1-50.7-46.927,381.167,381.167,0,0,1-41.831-56.873,400.636,400.636,0,0,1-31.585-65.275,417.188,417.188,0,0,1-19.962-72.132,432.519,432.519,0,0,1-6.963-77.449,432.516,432.516,0,0,1,6.963-77.445,417.188,417.188,0,0,1,19.962-72.132,400.675,400.675,0,0,1,31.585-65.275,380.979,380.979,0,0,1,41.831-56.877,357.217,357.217,0,0,1,50.7-46.922,332.823,332.823,0,0,1,58.189-35.431,314.222,314.222,0,0,1,64.308-22.39,308.881,308.881,0,0,1,69.038-7.809,308.928,308.928,0,0,1,69.042,7.809,314.213,314.213,0,0,1,64.307,22.39,326.988,326.988,0,0,1,30.494,16.523v-306.757h262.145v1028.423h-262.145v-46.545a326.988,326.988,0,0,1-30.494,16.523,314.216,314.216,0,0,1-64.307,22.391,308.984,308.984,0,0,1-69.042,7.808A308.937,308.937,0,0,1,11411.3-15326.1Zm-55.3-376.477c0,91.556,74.486,166.043,166.042,166.043,83.51,0,152.814-61.965,164.356-142.331a.106.106,0,0,1,0-.037c.009-.058.017-.119.024-.177a166.542,166.542,0,0,0,1.646-21.521v-.028c0-.07,0-.136,0-.205v-.316c0-.058,0-.1,0-.16v-.369c0-.045,0-.09,0-.131v-1.531c0-.045,0-.09,0-.131v-.369c0-.058,0-.106,0-.16v-.315c0-.07,0-.14,0-.21v-.028a167.231,167.231,0,0,0-1.646-21.517c-.008-.062-.016-.115-.024-.172,0-.013,0-.029,0-.041-11.542-80.371-80.847-142.336-164.356-142.336C11430.493-15868.616,11356.007-15794.129,11356.007-15702.573Zm-444.641,384.284c-144.715,0-262.046-117.277-262.145-261.972v-767.371h262.145v260.778h154.907v262.145h-154.907v165.768a79.387,79.387,0,0,0,78.521,78.5h76.382v262.148Zm-1143.908,0v-657.643H10029.6v657.643Zm-238.313,0c-144.715,0-262.042-117.273-262.145-261.968v-768.564h262.145v689.88c.315,43,35.512,78.2,78.52,78.508h76.387v262.145Zm2485.616-.086v-506.416c.1-144.694,117.43-261.973,262.145-261.973h154.906v262.148h-76.173a79.291,79.291,0,0,0-78.729,78.517h0v427.724Zm-2247.3-768.3V-16349H10029.6v262.321Z" transform="translate(-9267 16349.002)" fill="#06f"/>
  </g>
</svg>